<mxfile host="app.diagrams.net" agent="Mozilla/5.0 (Windows NT 10.0; Win64; x64) AppleWebKit/537.36 (KHTML, like Gecko) Chrome/131.0.0.0 Safari/537.36" version="25.0.3">
  <diagram name="PÃ¡gina-1" id="dHz9sTDNKnf6qzXqTtZH">
    <mxGraphModel dx="1257" dy="620" grid="1" gridSize="10" guides="1" tooltips="1" connect="1" arrows="1" fold="1" page="1" pageScale="1" pageWidth="827" pageHeight="1169" math="0" shadow="0">
      <root>
        <mxCell id="0" />
        <mxCell id="1" parent="0" />
        <mxCell id="tBe58TExUTwstOTIfK5z-19" style="edgeStyle=orthogonalEdgeStyle;rounded=0;orthogonalLoop=1;jettySize=auto;html=1;exitX=0.5;exitY=1;exitDx=0;exitDy=0;exitPerimeter=0;entryX=0.5;entryY=0;entryDx=0;entryDy=0;" edge="1" parent="1" source="tBe58TExUTwstOTIfK5z-1" target="tBe58TExUTwstOTIfK5z-3">
          <mxGeometry relative="1" as="geometry" />
        </mxCell>
        <mxCell id="tBe58TExUTwstOTIfK5z-1" value="&lt;font style=&quot;vertical-align: inherit;&quot;&gt;&lt;font style=&quot;vertical-align: inherit;&quot;&gt;INICIO&lt;/font&gt;&lt;/font&gt;" style="strokeWidth=2;html=1;shape=mxgraph.flowchart.start_2;whiteSpace=wrap;" vertex="1" parent="1">
          <mxGeometry x="364" y="78" width="86" height="70" as="geometry" />
        </mxCell>
        <mxCell id="tBe58TExUTwstOTIfK5z-2" value="&lt;font style=&quot;vertical-align: inherit;&quot;&gt;&lt;font style=&quot;vertical-align: inherit;&quot;&gt;FIM&lt;/font&gt;&lt;/font&gt;" style="strokeWidth=2;html=1;shape=mxgraph.flowchart.start_2;whiteSpace=wrap;" vertex="1" parent="1">
          <mxGeometry x="364" y="718" width="86" height="70" as="geometry" />
        </mxCell>
        <mxCell id="tBe58TExUTwstOTIfK5z-20" style="edgeStyle=orthogonalEdgeStyle;rounded=0;orthogonalLoop=1;jettySize=auto;html=1;exitX=0.5;exitY=1;exitDx=0;exitDy=0;entryX=0.5;entryY=0;entryDx=0;entryDy=0;" edge="1" parent="1" source="tBe58TExUTwstOTIfK5z-3" target="tBe58TExUTwstOTIfK5z-4">
          <mxGeometry relative="1" as="geometry" />
        </mxCell>
        <mxCell id="tBe58TExUTwstOTIfK5z-3" value="&lt;font style=&quot;vertical-align: inherit;&quot;&gt;&lt;font style=&quot;vertical-align: inherit;&quot;&gt;REAL PESO&lt;/font&gt;&lt;/font&gt;" style="shape=parallelogram;html=1;strokeWidth=2;perimeter=parallelogramPerimeter;whiteSpace=wrap;rounded=1;arcSize=12;size=0.23;" vertex="1" parent="1">
          <mxGeometry x="325.5" y="168" width="163" height="50" as="geometry" />
        </mxCell>
        <mxCell id="tBe58TExUTwstOTIfK5z-21" style="edgeStyle=orthogonalEdgeStyle;rounded=0;orthogonalLoop=1;jettySize=auto;html=1;exitX=0.5;exitY=1;exitDx=0;exitDy=0;entryX=0.5;entryY=0;entryDx=0;entryDy=0;" edge="1" parent="1" source="tBe58TExUTwstOTIfK5z-4" target="tBe58TExUTwstOTIfK5z-5">
          <mxGeometry relative="1" as="geometry" />
        </mxCell>
        <mxCell id="tBe58TExUTwstOTIfK5z-4" value="&lt;font style=&quot;vertical-align: inherit;&quot;&gt;&lt;font style=&quot;vertical-align: inherit;&quot;&gt;REAL ALTURA&lt;/font&gt;&lt;/font&gt;" style="shape=parallelogram;html=1;strokeWidth=2;perimeter=parallelogramPerimeter;whiteSpace=wrap;rounded=1;arcSize=12;size=0.23;" vertex="1" parent="1">
          <mxGeometry x="325.5" y="238" width="163" height="50" as="geometry" />
        </mxCell>
        <mxCell id="tBe58TExUTwstOTIfK5z-5" value="&lt;font style=&quot;vertical-align: inherit;&quot;&gt;&lt;font style=&quot;vertical-align: inherit;&quot;&gt;CALCULAR IMC PESO / (ALTURA*ALTURA)&lt;/font&gt;&lt;/font&gt;" style="rounded=1;whiteSpace=wrap;html=1;absoluteArcSize=1;arcSize=14;strokeWidth=2;" vertex="1" parent="1">
          <mxGeometry x="275.5" y="308" width="263" height="50" as="geometry" />
        </mxCell>
        <mxCell id="tBe58TExUTwstOTIfK5z-23" style="edgeStyle=orthogonalEdgeStyle;rounded=0;orthogonalLoop=1;jettySize=auto;html=1;exitX=0.5;exitY=1;exitDx=0;exitDy=0;exitPerimeter=0;" edge="1" parent="1" source="tBe58TExUTwstOTIfK5z-6" target="tBe58TExUTwstOTIfK5z-7">
          <mxGeometry relative="1" as="geometry" />
        </mxCell>
        <mxCell id="tBe58TExUTwstOTIfK5z-6" value="&lt;font style=&quot;vertical-align: inherit;&quot;&gt;&lt;font style=&quot;vertical-align: inherit;&quot;&gt;RESULTADO&lt;/font&gt;&lt;/font&gt;" style="strokeWidth=2;html=1;shape=mxgraph.flowchart.display;whiteSpace=wrap;" vertex="1" parent="1">
          <mxGeometry x="340.5" y="378" width="133" height="70" as="geometry" />
        </mxCell>
        <mxCell id="tBe58TExUTwstOTIfK5z-10" style="edgeStyle=orthogonalEdgeStyle;rounded=0;orthogonalLoop=1;jettySize=auto;html=1;exitX=1;exitY=0.5;exitDx=0;exitDy=0;exitPerimeter=0;" edge="1" parent="1" source="tBe58TExUTwstOTIfK5z-7">
          <mxGeometry relative="1" as="geometry">
            <mxPoint x="538.5" y="533" as="targetPoint" />
          </mxGeometry>
        </mxCell>
        <mxCell id="tBe58TExUTwstOTIfK5z-11" value="&lt;font style=&quot;vertical-align: inherit;&quot;&gt;&lt;font style=&quot;vertical-align: inherit;&quot;&gt;SIM&lt;/font&gt;&lt;/font&gt;" style="edgeLabel;html=1;align=center;verticalAlign=middle;resizable=0;points=[];" vertex="1" connectable="0" parent="tBe58TExUTwstOTIfK5z-10">
          <mxGeometry x="0.0835" y="2" relative="1" as="geometry">
            <mxPoint as="offset" />
          </mxGeometry>
        </mxCell>
        <mxCell id="tBe58TExUTwstOTIfK5z-7" value="&lt;font style=&quot;vertical-align: inherit;&quot;&gt;&lt;font style=&quot;vertical-align: inherit;&quot;&gt;RESULTADO &amp;gt; 25&lt;/font&gt;&lt;/font&gt;" style="strokeWidth=2;html=1;shape=mxgraph.flowchart.decision;whiteSpace=wrap;" vertex="1" parent="1">
          <mxGeometry x="340.5" y="468" width="133" height="130" as="geometry" />
        </mxCell>
        <mxCell id="tBe58TExUTwstOTIfK5z-8" value="" style="strokeWidth=2;html=1;shape=mxgraph.flowchart.start_2;whiteSpace=wrap;" vertex="1" parent="1">
          <mxGeometry x="387" y="638" width="40" height="40" as="geometry" />
        </mxCell>
        <mxCell id="tBe58TExUTwstOTIfK5z-12" value="&lt;font style=&quot;vertical-align: inherit;&quot;&gt;&lt;font style=&quot;vertical-align: inherit;&quot;&gt;INDICE ACIMA!!&lt;/font&gt;&lt;/font&gt;" style="strokeWidth=2;html=1;shape=mxgraph.flowchart.display;whiteSpace=wrap;" vertex="1" parent="1">
          <mxGeometry x="538.5" y="500.5" width="131" height="65" as="geometry" />
        </mxCell>
        <mxCell id="tBe58TExUTwstOTIfK5z-13" value="" style="strokeWidth=2;html=1;shape=mxgraph.flowchart.start_2;whiteSpace=wrap;" vertex="1" parent="1">
          <mxGeometry x="250" y="513" width="40" height="40" as="geometry" />
        </mxCell>
        <mxCell id="tBe58TExUTwstOTIfK5z-14" style="edgeStyle=orthogonalEdgeStyle;rounded=0;orthogonalLoop=1;jettySize=auto;html=1;exitX=0;exitY=0.5;exitDx=0;exitDy=0;exitPerimeter=0;entryX=1;entryY=0.5;entryDx=0;entryDy=0;entryPerimeter=0;" edge="1" parent="1" source="tBe58TExUTwstOTIfK5z-7" target="tBe58TExUTwstOTIfK5z-13">
          <mxGeometry relative="1" as="geometry" />
        </mxCell>
        <mxCell id="tBe58TExUTwstOTIfK5z-15" value="&lt;font style=&quot;vertical-align: inherit;&quot;&gt;&lt;font style=&quot;vertical-align: inherit;&quot;&gt;NAO&lt;/font&gt;&lt;/font&gt;" style="edgeLabel;html=1;align=center;verticalAlign=middle;resizable=0;points=[];" vertex="1" connectable="0" parent="tBe58TExUTwstOTIfK5z-14">
          <mxGeometry x="-0.024" y="1" relative="1" as="geometry">
            <mxPoint as="offset" />
          </mxGeometry>
        </mxCell>
        <mxCell id="tBe58TExUTwstOTIfK5z-16" style="edgeStyle=orthogonalEdgeStyle;rounded=0;orthogonalLoop=1;jettySize=auto;html=1;exitX=0.5;exitY=1;exitDx=0;exitDy=0;exitPerimeter=0;entryX=0;entryY=0.5;entryDx=0;entryDy=0;entryPerimeter=0;" edge="1" parent="1" source="tBe58TExUTwstOTIfK5z-13" target="tBe58TExUTwstOTIfK5z-8">
          <mxGeometry relative="1" as="geometry" />
        </mxCell>
        <mxCell id="tBe58TExUTwstOTIfK5z-17" style="edgeStyle=orthogonalEdgeStyle;rounded=0;orthogonalLoop=1;jettySize=auto;html=1;exitX=0.5;exitY=1;exitDx=0;exitDy=0;exitPerimeter=0;entryX=1;entryY=0.5;entryDx=0;entryDy=0;entryPerimeter=0;" edge="1" parent="1" source="tBe58TExUTwstOTIfK5z-12" target="tBe58TExUTwstOTIfK5z-8">
          <mxGeometry relative="1" as="geometry" />
        </mxCell>
        <mxCell id="tBe58TExUTwstOTIfK5z-18" style="edgeStyle=orthogonalEdgeStyle;rounded=0;orthogonalLoop=1;jettySize=auto;html=1;exitX=0.5;exitY=1;exitDx=0;exitDy=0;exitPerimeter=0;entryX=0.5;entryY=0;entryDx=0;entryDy=0;entryPerimeter=0;" edge="1" parent="1" source="tBe58TExUTwstOTIfK5z-8" target="tBe58TExUTwstOTIfK5z-2">
          <mxGeometry relative="1" as="geometry" />
        </mxCell>
        <mxCell id="tBe58TExUTwstOTIfK5z-22" style="edgeStyle=orthogonalEdgeStyle;rounded=0;orthogonalLoop=1;jettySize=auto;html=1;exitX=0.5;exitY=1;exitDx=0;exitDy=0;entryX=0.5;entryY=0;entryDx=0;entryDy=0;entryPerimeter=0;" edge="1" parent="1" source="tBe58TExUTwstOTIfK5z-5" target="tBe58TExUTwstOTIfK5z-6">
          <mxGeometry relative="1" as="geometry" />
        </mxCell>
      </root>
    </mxGraphModel>
  </diagram>
</mxfile>
